<?xml version="1.0" encoding="UTF-8"?>
<svg id="Layer_2" data-name="Layer 2" xmlns="http://www.w3.org/2000/svg" viewBox="0 0 794.44 450.96">
  <defs>
    <style>
      .cls-1 {
        fill: #fff;
      }
    </style>
  </defs>
  <g id="Layer_2-2" data-name="Layer 2">
    <g id="Layer_1-2" data-name="Layer 1-2">
      <g>
        <path class="cls-1" d="M82.71,176.08h315.77c3.88,0,7.03,3.15,7,7.03-.11,15.28-2.83,53.48-24.57,94.64-2.05,3.91-6.12,6.36-10.53,6.36h-122.9c-3.88,0-7,3.13-7,7v152.83c0,3.88-3.13,7-7,7H82.71c-3.88,0-7-3.13-7-7V183.12c0-3.88,3.13-7,7-7v-.03Z"/>
        <path class="cls-1" d="M468.15,175.57h270.05c5.77,0,11.48,1,16.84,3.07,12.61,4.88,32.81,16.35,33.16,40.03.43,30.01.11,145.99,0,175.63,0,5.52-.81,11.02-2.51,16.3-4.55,14.28-16.14,39.82-40.63,39.82h-244.54c-6.9,0-13.15-4.04-16.03-10.32-8.3-18.16-24.22-57.3-25.38-93.32-.11-2.94,2.24-5.42,5.17-5.42h209.68c2.86,0,5.17-2.32,5.17-5.17v-45.45c0-2.86-2.32-5.17-5.17-5.17h-158.9c-12.28,0-24.33-3.66-34.35-10.75-10.99-7.79-22.2-20.07-22.2-37.93,0-23.36.67-42.89,1.13-53.29.19-4.53,3.91-8.08,8.46-8.08l.03.05Z"/>
        <path class="cls-1" d="M62.34.62H1.38C.57.62-.05,1.29,0,2.1c.46,5.95,4.85,28.48,44.67,42.08.75.27.73,1.35-.05,1.51-6.41,1.29-21.61,4.36-25.7,5.55-.59.19-1,.73-.97,1.35.22,4.15,3.04,20.31,32.71,34.78.7.35.57,1.37-.22,1.48-5.09.75-16.3,2.48-20.29,3.69-.73.22-1.13,1-.89,1.7,1.59,4.88,9.16,23.3,35.67,30.74,29.39,8.27,671.98.7,725.46.05,2.13,0,3.88-1.7,3.99-3.83.51-10.13-1.78-42.43-35.37-118.78-.7-1.45-2.16-2.42-3.77-2.42L62.34.62Z"/>
      </g>
    </g>
  </g>
</svg>