<svg width="102" height="102" viewBox="0 0 102 102" fill="none" xmlns="http://www.w3.org/2000/svg">
<path d="M68.2525 10.4269C69.4477 11.6224 70.1192 13.2437 70.1192 14.9342C70.1192 16.6247 69.4477 18.246 68.2525 19.4415L36.6962 50.9978L68.2525 82.554C69.3772 83.7622 69.9894 85.3596 69.9604 87.01C69.9313 88.6605 69.2633 90.2353 68.0967 91.4031C66.9301 92.571 65.356 93.2408 63.7056 93.2717C62.0552 93.3026 60.4572 92.6921 59.2478 91.5687L23.1792 55.5101C21.984 54.3146 21.3125 52.6933 21.3125 51.0028C21.3125 49.3123 21.984 47.691 23.1792 46.4954L59.2378 10.4269C60.4333 9.23164 62.0546 8.56018 63.7451 8.56018C65.4357 8.56018 67.057 9.23164 68.2525 10.4269Z" fill="white"/>
</svg>
