<svg width="102" height="102" viewBox="0 0 102 102" fill="none" xmlns="http://www.w3.org/2000/svg">
<path d="M33.7475 10.4269C32.5523 11.6224 31.8808 13.2437 31.8808 14.9342C31.8808 16.6247 32.5523 18.246 33.7475 19.4415L65.3038 50.9978L33.7475 82.554C32.6228 83.7622 32.0106 85.3596 32.0396 87.01C32.0687 88.6605 32.7367 90.2353 33.9033 91.4031C35.0699 92.571 36.644 93.2408 38.2944 93.2717C39.9448 93.3026 41.5428 92.6921 42.7522 91.5687L78.8208 55.5101C80.016 54.3146 80.6875 52.6933 80.6875 51.0028C80.6875 49.3123 80.016 47.691 78.8208 46.4954L42.7622 10.4269C41.5667 9.23164 39.9454 8.56018 38.2549 8.56018C36.5643 8.56018 34.943 9.23164 33.7475 10.4269Z" fill="white"/>
</svg>
