<svg width="100" height="100" viewBox="0 0 100 100" fill="none" xmlns="http://www.w3.org/2000/svg">
<g clip-path="url(#clip0_155_120)">
<path fill-rule="evenodd" clip-rule="evenodd" d="M27.301 25.2595C27.3012 23.9337 27.828 22.6622 28.7655 21.7247C29.703 20.7873 30.9744 20.2605 32.3003 20.2603H74.7267C76.0525 20.2605 77.3239 20.7873 78.2614 21.7247C79.1989 22.6622 79.7257 23.9337 79.7259 25.2595L79.7259 67.6859C79.7374 68.3498 79.6167 69.0092 79.3706 69.6259C79.1246 70.2425 78.7582 70.804 78.2928 71.2775C77.8274 71.751 77.2724 72.1271 76.6601 72.3839C76.0479 72.6406 75.3906 72.7728 74.7267 72.7728C74.0627 72.7728 73.4055 72.6406 72.7932 72.3839C72.1809 72.1271 71.6259 71.751 71.1605 71.2775C70.6952 70.804 70.3288 70.2425 70.0827 69.6259C69.8367 69.0092 69.7159 68.3498 69.7274 67.6859L69.7274 37.3298L28.7647 78.2925C27.827 79.2302 26.5553 79.757 25.2292 79.757C23.9031 79.757 22.6313 79.2302 21.6937 78.2925C20.756 77.3549 20.2292 76.0831 20.2292 74.757C20.2292 73.4309 20.756 72.1591 21.6937 71.2215L62.6564 30.2588L32.3003 30.2588C30.9744 30.2586 29.703 29.7318 28.7655 28.7943C27.828 27.8568 27.3012 26.5853 27.301 25.2595Z" fill="black"/>
</g>
<defs>
<clipPath id="clip0_155_120">
<rect width="100" height="100" fill="white" transform="matrix(0 -1 1 0 0 100)"/>
</clipPath>
</defs>
</svg>
