<svg width="100" height="100" viewBox="0 0 100 100" fill="none" xmlns="http://www.w3.org/2000/svg">
<path d="M49.9998 64.8959C49.4443 64.8959 48.9235 64.8098 48.4373 64.6376C47.9512 64.4654 47.4998 64.1695 47.0832 63.7501L32.0832 48.7501C31.2498 47.9168 30.8498 46.9445 30.8832 45.8334C30.9165 44.7223 31.3165 43.7501 32.0832 42.9168C32.9165 42.0834 33.9068 41.6501 35.054 41.6168C36.2012 41.5834 37.1901 41.982 38.0207 42.8126L45.8332 50.6251V20.8334C45.8332 19.6529 46.2332 18.664 47.0332 17.8668C47.8332 17.0695 48.8221 16.6695 49.9998 16.6668C51.1776 16.664 52.1679 17.064 52.9707 17.8668C53.7735 18.6695 54.1721 19.6584 54.1665 20.8334V50.6251L61.979 42.8126C62.8123 41.9793 63.8026 41.5793 64.9498 41.6126C66.0971 41.6459 67.0859 42.0807 67.9165 42.9168C68.6804 43.7501 69.0804 44.7223 69.1165 45.8334C69.1526 46.9445 68.7526 47.9168 67.9165 48.7501L52.9165 63.7501C52.4998 64.1668 52.0485 64.4626 51.5623 64.6376C51.0762 64.8126 50.5554 64.8987 49.9998 64.8959ZM24.9998 83.3334C22.7082 83.3334 20.7471 82.5182 19.1165 80.8876C17.4859 79.257 16.6693 77.2945 16.6665 75.0001V66.6668C16.6665 65.4862 17.0665 64.4973 17.8665 63.7001C18.6665 62.9029 19.6554 62.5029 20.8332 62.5001C22.0109 62.4973 23.0012 62.8973 23.804 63.7001C24.6068 64.5029 25.0054 65.4918 24.9998 66.6668V75.0001H74.9998V66.6668C74.9998 65.4862 75.3998 64.4973 76.1998 63.7001C76.9998 62.9029 77.9887 62.5029 79.1665 62.5001C80.3443 62.4973 81.3346 62.8973 82.1373 63.7001C82.9401 64.5029 83.3387 65.4918 83.3332 66.6668V75.0001C83.3332 77.2918 82.5179 79.2543 80.8873 80.8876C79.2568 82.5209 77.2943 83.3362 74.9998 83.3334H24.9998Z" fill="black"/>
</svg>
