<svg width="223" height="59" viewBox="0 0 223 59" fill="none" xmlns="http://www.w3.org/2000/svg">
<g filter="url(#filter0_d_120_467)">
<mask id="path-1-inside-1_120_467" fill="white">
<path d="M19.8711 20.7504C19.8711 20.2648 20.2648 19.8712 20.7504 19.8712H197.947C205.967 19.8712 212.468 26.3725 212.468 34.3924C212.468 42.4122 205.967 48.9136 197.947 48.9136H34.5992C26.4651 48.9136 19.8711 42.3196 19.8711 34.1855V20.7504Z"/>
</mask>
<path d="M19.8711 20.7504C19.8711 20.2648 20.2648 19.8712 20.7504 19.8712H197.947C205.967 19.8712 212.468 26.3725 212.468 34.3924C212.468 42.4122 205.967 48.9136 197.947 48.9136H34.5992C26.4651 48.9136 19.8711 42.3196 19.8711 34.1855V20.7504Z" fill="#007DFA"/>
<path d="M19.8711 20.7504C19.8711 20.2648 20.2648 19.8712 20.7504 19.8712H197.947C205.967 19.8712 212.468 26.3725 212.468 34.3924C212.468 42.4122 205.967 48.9136 197.947 48.9136H34.5992C26.4651 48.9136 19.8711 42.3196 19.8711 34.1855V20.7504Z" stroke="#0060BF" stroke-width="3.51717" mask="url(#path-1-inside-1_120_467)"/>
</g>
<path d="M39.7285 31.5239C39.675 31.0717 39.4578 30.7206 39.077 30.4707C38.6962 30.2208 38.2291 30.0959 37.6757 30.0959C37.2711 30.0959 36.917 30.1613 36.6136 30.2922C36.3131 30.4231 36.078 30.6031 35.9084 30.8322C35.7418 31.0613 35.6585 31.3216 35.6585 31.6132C35.6585 31.8572 35.7165 32.0669 35.8326 32.2424C35.9516 32.415 36.1033 32.5593 36.2878 32.6753C36.4722 32.7884 36.6656 32.8821 36.8679 32.9565C37.0702 33.0279 37.2562 33.0859 37.4258 33.1305L38.354 33.3804C38.592 33.4429 38.8568 33.5292 39.1484 33.6393C39.4429 33.7493 39.7241 33.8996 39.9918 34.09C40.2626 34.2774 40.4857 34.5184 40.6612 34.813C40.8368 35.1075 40.9245 35.469 40.9245 35.8974C40.9245 36.3913 40.7951 36.8375 40.5363 37.2362C40.2804 37.6349 39.9055 37.9517 39.4117 38.1868C38.9208 38.4218 38.3243 38.5393 37.6221 38.5393C36.9676 38.5393 36.4008 38.4337 35.9218 38.2225C35.4458 38.0112 35.0709 37.7167 34.7972 37.3389C34.5265 36.961 34.3733 36.5222 34.3376 36.0224H35.48C35.5098 36.3675 35.6258 36.6531 35.8281 36.8792C36.0334 37.1023 36.2922 37.2689 36.6046 37.379C36.92 37.4861 37.2592 37.5397 37.6221 37.5397C38.0446 37.5397 38.4239 37.4712 38.7601 37.3344C39.0963 37.1946 39.3626 37.0012 39.5589 36.7542C39.7553 36.5043 39.8535 36.2128 39.8535 35.8795C39.8535 35.5761 39.7687 35.3291 39.5991 35.1387C39.4295 34.9483 39.2064 34.7936 38.9297 34.6746C38.653 34.5556 38.354 34.4515 38.0327 34.3622L36.9081 34.0409C36.1941 33.8356 35.6288 33.5426 35.2123 33.1618C34.7957 32.7809 34.5875 32.2826 34.5875 31.6667C34.5875 31.155 34.7258 30.7087 35.0025 30.3279C35.2822 29.9441 35.657 29.6466 36.1271 29.4354C36.6002 29.2212 37.1283 29.1141 37.7114 29.1141C38.3005 29.1141 38.8241 29.2197 39.2823 29.4309C39.7404 29.6392 40.1034 29.9248 40.3712 30.2878C40.6419 30.6507 40.7847 31.0628 40.7996 31.5239H39.7285ZM45.3861 38.5215C44.7435 38.5215 44.1901 38.3697 43.726 38.0663C43.2619 37.7628 42.9049 37.3448 42.6549 36.8123C42.405 36.2797 42.2801 35.6713 42.2801 34.987C42.2801 34.2908 42.408 33.6765 42.6639 33.1439C42.9227 32.6084 43.2827 32.1904 43.7439 31.8899C44.208 31.5864 44.7494 31.4347 45.3683 31.4347C45.8503 31.4347 46.2846 31.5239 46.6714 31.7024C47.0582 31.881 47.375 32.1309 47.6219 32.4522C47.8689 32.7735 48.0221 33.1484 48.0816 33.5768H47.0284C46.9481 33.2644 46.7696 32.9877 46.4929 32.7467C46.2192 32.5028 45.8503 32.3808 45.3861 32.3808C44.9756 32.3808 44.6156 32.4879 44.3062 32.7021C43.9997 32.9133 43.7602 33.2123 43.5877 33.5991C43.4181 33.9829 43.3333 34.4336 43.3333 34.9513C43.3333 35.4809 43.4166 35.942 43.5832 36.3347C43.7528 36.7275 43.9908 37.0324 44.2972 37.2496C44.6066 37.4668 44.9696 37.5754 45.3861 37.5754C45.6598 37.5754 45.9083 37.5278 46.1314 37.4326C46.3545 37.3374 46.5435 37.2005 46.6982 37.022C46.8529 36.8435 46.963 36.6293 47.0284 36.3794H48.0816C48.0221 36.784 47.8748 37.1484 47.6398 37.4727C47.4077 37.794 47.0998 38.0499 46.716 38.2403C46.3352 38.4278 45.8919 38.5215 45.3861 38.5215ZM49.6212 38.3787V31.5239H50.6387V32.5593H50.7101C50.8351 32.2201 51.0612 31.9449 51.3885 31.7337C51.7157 31.5224 52.0847 31.4168 52.4952 31.4168C52.5726 31.4168 52.6693 31.4183 52.7853 31.4213C52.9013 31.4243 52.9891 31.4287 53.0486 31.4347V32.5057C53.0129 32.4968 52.9311 32.4834 52.8032 32.4656C52.6782 32.4447 52.5458 32.4343 52.406 32.4343C52.0728 32.4343 51.7752 32.5042 51.5134 32.6441C51.2546 32.7809 51.0493 32.9713 50.8976 33.2153C50.7488 33.4563 50.6744 33.7315 50.6744 34.0409V38.3787H49.6212ZM56.8731 38.5215C56.2543 38.5215 55.7114 38.3742 55.2443 38.0797C54.7801 37.7851 54.4172 37.3731 54.1554 36.8435C53.8965 36.3139 53.7671 35.6951 53.7671 34.987C53.7671 34.273 53.8965 33.6497 54.1554 33.1171C54.4172 32.5846 54.7801 32.171 55.2443 31.8765C55.7114 31.582 56.2543 31.4347 56.8731 31.4347C57.492 31.4347 58.0335 31.582 58.4976 31.8765C58.9647 32.171 59.3276 32.5846 59.5865 33.1171C59.8483 33.6497 59.9792 34.273 59.9792 34.987C59.9792 35.6951 59.8483 36.3139 59.5865 36.8435C59.3276 37.3731 58.9647 37.7851 58.4976 38.0797C58.0335 38.3742 57.492 38.5215 56.8731 38.5215ZM56.8731 37.5754C57.3432 37.5754 57.73 37.4549 58.0335 37.2139C58.3369 36.9729 58.5615 36.6561 58.7073 36.2633C58.8531 35.8706 58.926 35.4452 58.926 34.987C58.926 34.5288 58.8531 34.1019 58.7073 33.7062C58.5615 33.3105 58.3369 32.9907 58.0335 32.7467C57.73 32.5028 57.3432 32.3808 56.8731 32.3808C56.4031 32.3808 56.0163 32.5028 55.7128 32.7467C55.4094 32.9907 55.1848 33.3105 55.039 33.7062C54.8932 34.1019 54.8203 34.5288 54.8203 34.987C54.8203 35.4452 54.8932 35.8706 55.039 36.2633C55.1848 36.6561 55.4094 36.9729 55.7128 37.2139C56.0163 37.4549 56.4031 37.5754 56.8731 37.5754ZM62.6401 29.239V38.3787H61.5869V29.239H62.6401ZM65.6223 29.239V38.3787H64.5691V29.239H65.6223ZM74.0669 31.5239V32.4165H70.5145V31.5239H74.0669ZM71.5499 29.8817H72.6031V36.4151C72.6031 36.7126 72.6462 36.9357 72.7325 37.0845C72.8218 37.2303 72.9348 37.3284 73.0717 37.379C73.2115 37.4266 73.3588 37.4504 73.5135 37.4504C73.6295 37.4504 73.7247 37.4445 73.7991 37.4326C73.8735 37.4177 73.933 37.4058 73.9776 37.3969L74.1918 38.343C74.1204 38.3697 74.0207 38.3965 73.8928 38.4233C73.7649 38.453 73.6027 38.4679 73.4064 38.4679C73.1089 38.4679 72.8173 38.404 72.5317 38.276C72.2491 38.1481 72.014 37.9532 71.8266 37.6914C71.6421 37.4296 71.5499 37.0994 71.5499 36.7007V29.8817ZM78.3622 38.5215C77.7434 38.5215 77.2004 38.3742 76.7333 38.0797C76.2692 37.7851 75.9062 37.3731 75.6444 36.8435C75.3856 36.3139 75.2562 35.6951 75.2562 34.987C75.2562 34.273 75.3856 33.6497 75.6444 33.1171C75.9062 32.5846 76.2692 32.171 76.7333 31.8765C77.2004 31.582 77.7434 31.4347 78.3622 31.4347C78.9811 31.4347 79.5225 31.582 79.9866 31.8765C80.4537 32.171 80.8167 32.5846 81.0756 33.1171C81.3374 33.6497 81.4683 34.273 81.4683 34.987C81.4683 35.6951 81.3374 36.3139 81.0756 36.8435C80.8167 37.3731 80.4537 37.7851 79.9866 38.0797C79.5225 38.3742 78.9811 38.5215 78.3622 38.5215ZM78.3622 37.5754C78.8323 37.5754 79.2191 37.4549 79.5225 37.2139C79.826 36.9729 80.0506 36.6561 80.1964 36.2633C80.3422 35.8706 80.4151 35.4452 80.4151 34.987C80.4151 34.5288 80.3422 34.1019 80.1964 33.7062C80.0506 33.3105 79.826 32.9907 79.5225 32.7467C79.2191 32.5028 78.8323 32.3808 78.3622 32.3808C77.8922 32.3808 77.5054 32.5028 77.2019 32.7467C76.8985 32.9907 76.6738 33.3105 76.528 33.7062C76.3823 34.1019 76.3094 34.5288 76.3094 34.987C76.3094 35.4452 76.3823 35.8706 76.528 36.2633C76.6738 36.6561 76.8985 36.9729 77.2019 37.2139C77.5054 37.4549 77.8922 37.5754 78.3622 37.5754ZM89.3952 38.5215C88.7525 38.5215 88.1992 38.3697 87.735 38.0663C87.2709 37.7628 86.9139 37.3448 86.664 36.8123C86.4141 36.2797 86.2891 35.6713 86.2891 34.987C86.2891 34.2908 86.417 33.6765 86.6729 33.1439C86.9317 32.6084 87.2917 32.1904 87.7529 31.8899C88.217 31.5864 88.7585 31.4347 89.3773 31.4347C89.8593 31.4347 90.2937 31.5239 90.6804 31.7024C91.0672 31.881 91.384 32.1309 91.631 32.4522C91.8779 32.7735 92.0311 33.1484 92.0906 33.5768H91.0374C90.9571 33.2644 90.7786 32.9877 90.5019 32.7467C90.2282 32.5028 89.8593 32.3808 89.3952 32.3808C88.9846 32.3808 88.6246 32.4879 88.3152 32.7021C88.0087 32.9133 87.7692 33.2123 87.5967 33.5991C87.4271 33.9829 87.3423 34.4336 87.3423 34.9513C87.3423 35.4809 87.4256 35.942 87.5922 36.3347C87.7618 36.7275 87.9998 37.0324 88.3063 37.2496C88.6157 37.4668 88.9786 37.5754 89.3952 37.5754C89.6689 37.5754 89.9173 37.5278 90.1404 37.4326C90.3636 37.3374 90.5525 37.2005 90.7072 37.022C90.8619 36.8435 90.972 36.6293 91.0374 36.3794H92.0906C92.0311 36.784 91.8839 37.1484 91.6488 37.4727C91.4168 37.794 91.1088 38.0499 90.7251 38.2403C90.3442 38.4278 89.9009 38.5215 89.3952 38.5215ZM94.6835 34.2551V38.3787H93.6303V29.239H94.6835V32.595H94.7727C94.9334 32.2409 95.1744 31.9598 95.4957 31.7515C95.82 31.5403 96.2514 31.4347 96.7899 31.4347C97.257 31.4347 97.6661 31.5284 98.0171 31.7158C98.3682 31.9003 98.6404 32.1844 98.8338 32.5682C99.0302 32.949 99.1283 33.434 99.1283 34.0231V38.3787H98.0751V34.0945C98.0751 33.55 97.9338 33.129 97.6512 32.8315C97.3715 32.531 96.9833 32.3808 96.4864 32.3808C96.1413 32.3808 95.8319 32.4537 95.5582 32.5994C95.2874 32.7452 95.0732 32.958 94.9155 33.2376C94.7608 33.5173 94.6835 33.8564 94.6835 34.2551ZM103.929 38.5215C103.269 38.5215 102.699 38.3757 102.22 38.0841C101.744 37.7896 101.376 37.379 101.118 36.8524C100.862 36.3228 100.734 35.707 100.734 35.0049C100.734 34.3027 100.862 33.6839 101.118 33.1484C101.376 32.6099 101.736 32.1904 102.198 31.8899C102.662 31.5864 103.203 31.4347 103.822 31.4347C104.179 31.4347 104.532 31.4942 104.88 31.6132C105.228 31.7322 105.545 31.9256 105.83 32.1933C106.116 32.4581 106.343 32.8092 106.513 33.2465C106.683 33.6839 106.767 34.2224 106.767 34.862V35.3083H101.484V34.3979H105.696C105.696 34.0112 105.619 33.666 105.464 33.3626C105.313 33.0591 105.095 32.8196 104.813 32.6441C104.533 32.4685 104.203 32.3808 103.822 32.3808C103.402 32.3808 103.04 32.4849 102.733 32.6932C102.43 32.8985 102.196 33.1662 102.032 33.4965C101.869 33.8267 101.787 34.1807 101.787 34.5586V35.1655C101.787 35.6832 101.876 36.122 102.055 36.482C102.236 36.839 102.488 37.1113 102.809 37.2987C103.13 37.4831 103.504 37.5754 103.929 37.5754C104.206 37.5754 104.456 37.5367 104.679 37.4593C104.905 37.379 105.1 37.26 105.263 37.1023C105.427 36.9417 105.554 36.7423 105.643 36.5043L106.66 36.7899C106.553 37.1351 106.373 37.4385 106.12 37.7003C105.867 37.9592 105.555 38.1615 105.183 38.3073C104.811 38.4501 104.393 38.5215 103.929 38.5215ZM111.154 38.5215C110.512 38.5215 109.958 38.3697 109.494 38.0663C109.03 37.7628 108.673 37.3448 108.423 36.8123C108.173 36.2797 108.048 35.6713 108.048 34.987C108.048 34.2908 108.176 33.6765 108.432 33.1439C108.691 32.6084 109.051 32.1904 109.512 31.8899C109.976 31.5864 110.518 31.4347 111.136 31.4347C111.618 31.4347 112.053 31.5239 112.439 31.7024C112.826 31.881 113.143 32.1309 113.39 32.4522C113.637 32.7735 113.79 33.1484 113.85 33.5768H112.797C112.716 33.2644 112.538 32.9877 112.261 32.7467C111.987 32.5028 111.618 32.3808 111.154 32.3808C110.744 32.3808 110.384 32.4879 110.074 32.7021C109.768 32.9133 109.528 33.2123 109.356 33.5991C109.186 33.9829 109.101 34.4336 109.101 34.9513C109.101 35.4809 109.185 35.942 109.351 36.3347C109.521 36.7275 109.759 37.0324 110.065 37.2496C110.375 37.4668 110.738 37.5754 111.154 37.5754C111.428 37.5754 111.676 37.5278 111.899 37.4326C112.123 37.3374 112.312 37.2005 112.466 37.022C112.621 36.8435 112.731 36.6293 112.797 36.3794H113.85C113.79 36.784 113.643 37.1484 113.408 37.4727C113.176 37.794 112.868 38.0499 112.484 38.2403C112.103 38.4278 111.66 38.5215 111.154 38.5215ZM116.371 35.8795L116.353 34.5764H116.568L119.566 31.5239H120.87L117.674 34.7549H117.585L116.371 35.8795ZM115.389 38.3787V29.239H116.443V38.3787H115.389ZM119.745 38.3787L117.067 34.987L117.817 34.2551L121.084 38.3787H119.745ZM128.544 38.5215C127.925 38.5215 127.383 38.3742 126.915 38.0797C126.451 37.7851 126.088 37.3731 125.827 36.8435C125.568 36.3139 125.438 35.6951 125.438 34.987C125.438 34.273 125.568 33.6497 125.827 33.1171C126.088 32.5846 126.451 32.171 126.915 31.8765C127.383 31.582 127.925 31.4347 128.544 31.4347C129.163 31.4347 129.705 31.582 130.169 31.8765C130.636 32.171 130.999 32.5846 131.258 33.1171C131.519 33.6497 131.65 34.273 131.65 34.987C131.65 35.6951 131.519 36.3139 131.258 36.8435C130.999 37.3731 130.636 37.7851 130.169 38.0797C129.705 38.3742 129.163 38.5215 128.544 38.5215ZM128.544 37.5754C129.014 37.5754 129.401 37.4549 129.705 37.2139C130.008 36.9729 130.233 36.6561 130.378 36.2633C130.524 35.8706 130.597 35.4452 130.597 34.987C130.597 34.5288 130.524 34.1019 130.378 33.7062C130.233 33.3105 130.008 32.9907 129.705 32.7467C129.401 32.5028 129.014 32.3808 128.544 32.3808C128.074 32.3808 127.687 32.5028 127.384 32.7467C127.081 32.9907 126.856 33.3105 126.71 33.7062C126.564 34.1019 126.491 34.5288 126.491 34.987C126.491 35.4452 126.564 35.8706 126.71 36.2633C126.856 36.6561 127.081 36.9729 127.384 37.2139C127.687 37.4549 128.074 37.5754 128.544 37.5754ZM137.578 35.5761V31.5239H138.631V38.3787H137.578V37.2184H137.507C137.346 37.5664 137.096 37.8625 136.757 38.1064C136.418 38.3474 135.989 38.4679 135.472 38.4679C135.043 38.4679 134.662 38.3742 134.329 38.1868C133.996 37.9964 133.734 37.7107 133.544 37.3299C133.353 36.9461 133.258 36.4627 133.258 35.8795V31.5239H134.311V35.8081C134.311 36.308 134.451 36.7066 134.731 37.0041C135.013 37.3017 135.373 37.4504 135.811 37.4504C136.073 37.4504 136.339 37.3835 136.61 37.2496C136.883 37.1157 137.112 36.9104 137.297 36.6337C137.484 36.3571 137.578 36.0045 137.578 35.5761ZM143.541 31.5239V32.4165H139.989V31.5239H143.541ZM141.024 29.8817H142.077V36.4151C142.077 36.7126 142.121 36.9357 142.207 37.0845C142.296 37.2303 142.409 37.3284 142.546 37.379C142.686 37.4266 142.833 37.4504 142.988 37.4504C143.104 37.4504 143.199 37.4445 143.273 37.4326C143.348 37.4177 143.407 37.4058 143.452 37.3969L143.666 38.343C143.595 38.3697 143.495 38.3965 143.367 38.4233C143.239 38.453 143.077 38.4679 142.881 38.4679C142.583 38.4679 142.292 38.404 142.006 38.276C141.723 38.1481 141.488 37.9532 141.301 37.6914C141.117 37.4296 141.024 37.0994 141.024 36.7007V29.8817ZM148.66 38.3787V31.5239H149.677V32.595H149.767C149.91 32.229 150.14 31.9449 150.458 31.7426C150.777 31.5373 151.159 31.4347 151.605 31.4347C152.058 31.4347 152.434 31.5373 152.734 31.7426C153.038 31.9449 153.274 32.229 153.444 32.595H153.515C153.691 32.2409 153.954 31.9598 154.305 31.7515C154.656 31.5403 155.077 31.4347 155.568 31.4347C156.181 31.4347 156.682 31.6266 157.072 32.0104C157.462 32.3912 157.657 32.9847 157.657 33.791V38.3787H156.604V33.791C156.604 33.2852 156.465 32.9237 156.189 32.7066C155.912 32.4894 155.586 32.3808 155.211 32.3808C154.729 32.3808 154.356 32.5266 154.091 32.8181C153.826 33.1067 153.694 33.4727 153.694 33.916V38.3787H152.623V33.6839C152.623 33.2941 152.496 32.9803 152.244 32.7423C151.991 32.5013 151.665 32.3808 151.266 32.3808C150.992 32.3808 150.737 32.4537 150.499 32.5994C150.264 32.7452 150.073 32.9475 149.927 33.2064C149.785 33.4622 149.713 33.7583 149.713 34.0945V38.3787H148.66ZM160.015 40.9492C159.837 40.9492 159.678 40.9343 159.538 40.9046C159.398 40.8778 159.301 40.851 159.248 40.8242L159.516 39.896C159.771 39.9614 159.997 39.9852 160.194 39.9674C160.39 39.9495 160.564 39.8618 160.716 39.7041C160.871 39.5494 161.012 39.298 161.14 38.9499L161.336 38.4144L158.801 31.5239H159.944L161.836 36.9863H161.908L163.8 31.5239H164.942L162.032 39.3783C161.902 39.7324 161.739 40.0254 161.546 40.2575C161.353 40.4925 161.128 40.6665 160.872 40.7796C160.619 40.8927 160.334 40.9492 160.015 40.9492ZM171.42 38.3787L169.331 31.5239H170.438L171.92 36.7721H171.991L173.455 31.5239H174.579L176.025 36.7542H176.097L177.578 31.5239H178.685L176.597 38.3787H175.561L174.062 33.1127H173.955L172.455 38.3787H171.42ZM182.629 38.5215C182.01 38.5215 181.467 38.3742 181 38.0797C180.536 37.7851 180.173 37.3731 179.911 36.8435C179.652 36.3139 179.523 35.6951 179.523 34.987C179.523 34.273 179.652 33.6497 179.911 33.1171C180.173 32.5846 180.536 32.171 181 31.8765C181.467 31.582 182.01 31.4347 182.629 31.4347C183.248 31.4347 183.789 31.582 184.253 31.8765C184.721 32.171 185.084 32.5846 185.342 33.1171C185.604 33.6497 185.735 34.273 185.735 34.987C185.735 35.6951 185.604 36.3139 185.342 36.8435C185.084 37.3731 184.721 37.7851 184.253 38.0797C183.789 38.3742 183.248 38.5215 182.629 38.5215ZM182.629 37.5754C183.099 37.5754 183.486 37.4549 183.789 37.2139C184.093 36.9729 184.317 36.6561 184.463 36.2633C184.609 35.8706 184.682 35.4452 184.682 34.987C184.682 34.5288 184.609 34.1019 184.463 33.7062C184.317 33.3105 184.093 32.9907 183.789 32.7467C183.486 32.5028 183.099 32.3808 182.629 32.3808C182.159 32.3808 181.772 32.5028 181.469 32.7467C181.165 32.9907 180.941 33.3105 180.795 33.7062C180.649 34.1019 180.576 34.5288 180.576 34.987C180.576 35.4452 180.649 35.8706 180.795 36.2633C180.941 36.6561 181.165 36.9729 181.469 37.2139C181.772 37.4549 182.159 37.5754 182.629 37.5754ZM187.343 38.3787V31.5239H188.36V32.5593H188.432C188.557 32.2201 188.783 31.9449 189.11 31.7337C189.437 31.5224 189.806 31.4168 190.217 31.4168C190.294 31.4168 190.391 31.4183 190.507 31.4213C190.623 31.4243 190.711 31.4287 190.77 31.4347V32.5057C190.734 32.4968 190.653 32.4834 190.525 32.4656C190.4 32.4447 190.267 32.4343 190.127 32.4343C189.794 32.4343 189.497 32.5042 189.235 32.6441C188.976 32.7809 188.771 32.9713 188.619 33.2153C188.47 33.4563 188.396 33.7315 188.396 34.0409V38.3787H187.343ZM193 35.8795L192.983 34.5764H193.197L196.196 31.5239H197.499L194.303 34.7549H194.214L193 35.8795ZM192.019 38.3787V29.239H193.072V38.3787H192.019ZM196.374 38.3787L193.697 34.987L194.446 34.2551L197.713 38.3787H196.374ZM200.247 29.239L200.157 35.8081H199.122L199.033 29.239H200.247ZM199.64 38.4501C199.42 38.4501 199.231 38.3712 199.073 38.2135C198.915 38.0559 198.836 37.8669 198.836 37.6468C198.836 37.4266 198.915 37.2377 199.073 37.08C199.231 36.9223 199.42 36.8435 199.64 36.8435C199.86 36.8435 200.049 36.9223 200.207 37.08C200.364 37.2377 200.443 37.4266 200.443 37.6468C200.443 37.7926 200.406 37.9264 200.331 38.0484C200.26 38.1704 200.163 38.2686 200.041 38.343C199.922 38.4144 199.789 38.4501 199.64 38.4501Z" fill="white"/>
<g filter="url(#filter1_d_120_467)">
<path d="M8.76033 17.3319L5.53893 6.03122C5.33196 5.30517 6.08606 4.67821 6.77175 5.00624L17.4443 10.112C18.1504 10.4498 18.0974 11.4632 17.3599 11.7245L13.0912 13.237C12.8929 13.3072 12.7265 13.4455 12.6222 13.6269L10.3777 17.5295C9.98995 18.2038 8.97345 18.0796 8.76033 17.3319Z" fill="#0070E0"/>
<path d="M4.90152 6.2091C4.53932 4.93851 5.85896 3.84135 7.05893 4.41541L17.7317 9.52029C18.9672 10.1113 18.8744 11.8852 17.5843 12.3427L13.3153 13.855C13.2658 13.8726 13.2242 13.9072 13.1981 13.9524L10.9536 17.8555C10.2751 19.0354 8.49578 18.8175 8.12281 17.5092L4.90152 6.2091Z" stroke="#F5FAFF" stroke-width="1.31894"/>
</g>
<defs>
<filter id="filter0_d_120_467" x="10.1234" y="10.1235" width="212.093" height="48.5378" filterUnits="userSpaceOnUse" color-interpolation-filters="sRGB">
<feFlood flood-opacity="0" result="BackgroundImageFix"/>
<feColorMatrix in="SourceAlpha" type="matrix" values="0 0 0 0 0 0 0 0 0 0 0 0 0 0 0 0 0 0 127 0" result="hardAlpha"/>
<feOffset/>
<feGaussianBlur stdDeviation="4.87384"/>
<feComposite in2="hardAlpha" operator="out"/>
<feColorMatrix type="matrix" values="0 0 0 0 0 0 0 0 0 0.341176 0 0 0 0 0.682353 0 0 0 0.6 0"/>
<feBlend mode="normal" in2="BackgroundImageFix" result="effect1_dropShadow_120_467"/>
<feBlend mode="normal" in="SourceGraphic" in2="effect1_dropShadow_120_467" result="shape"/>
</filter>
<filter id="filter1_d_120_467" x="3.54535" y="3.28464" width="16.3556" height="16.9465" filterUnits="userSpaceOnUse" color-interpolation-filters="sRGB">
<feFlood flood-opacity="0" result="BackgroundImageFix"/>
<feColorMatrix in="SourceAlpha" type="matrix" values="0 0 0 0 0 0 0 0 0 0 0 0 0 0 0 0 0 0 127 0" result="hardAlpha"/>
<feOffset dy="0.315703"/>
<feGaussianBlur stdDeviation="0.315703"/>
<feComposite in2="hardAlpha" operator="out"/>
<feColorMatrix type="matrix" values="0 0 0 0 0 0 0 0 0 0 0 0 0 0 0 0 0 0 0.08 0"/>
<feBlend mode="normal" in2="BackgroundImageFix" result="effect1_dropShadow_120_467"/>
<feBlend mode="normal" in="SourceGraphic" in2="effect1_dropShadow_120_467" result="shape"/>
</filter>
</defs>
</svg>
