<svg width="34" height="34" viewBox="0 0 34 34" fill="none" xmlns="http://www.w3.org/2000/svg">
<path d="M5.66675 26.9167V14.1667C5.66675 13.7181 5.76733 13.2931 5.9685 12.8917C6.16966 12.4903 6.44686 12.1598 6.80008 11.9L15.3001 5.52504C15.7959 5.14726 16.3626 4.95837 17.0001 4.95837C17.6376 4.95837 18.2042 5.14726 18.7001 5.52504L27.2001 11.9C27.5542 12.1598 27.8319 12.4903 28.0331 12.8917C28.2342 13.2931 28.3344 13.7181 28.3334 14.1667V26.9167C28.3334 27.6959 28.0557 28.3631 27.5004 28.9185C26.9451 29.4738 26.2783 29.751 25.5001 29.75H21.2501C20.8487 29.75 20.5125 29.614 20.2414 29.342C19.9704 29.07 19.8344 28.7338 19.8334 28.3334V21.25C19.8334 20.8487 19.6974 20.5124 19.4254 20.2414C19.1534 19.9703 18.8172 19.8343 18.4167 19.8334H15.5834C15.182 19.8334 14.8458 19.9694 14.5747 20.2414C14.3037 20.5134 14.1677 20.8496 14.1667 21.25V28.3334C14.1667 28.7348 14.0307 29.0715 13.7587 29.3435C13.4867 29.6155 13.1505 29.751 12.7501 29.75H8.50008C7.72091 29.75 7.05414 29.4728 6.49975 28.9185C5.94536 28.3641 5.66769 27.6968 5.66675 26.9167Z" fill="white"/>
</svg>
